HIERARCHY
ROOT Hips
{
	OFFSET -0.001795 -0.223333 0.028219
	CHANNELS 6 Xposition Yposition Zposition Zrotation Yrotation Xrotation
	JOINT LeftUpLeg
	{
		OFFSET 0.069520 -0.091406 -0.006815
		CHANNELS 3 Zrotation Yrotation Xrotation
		JOINT LeftLeg
		{
			OFFSET 0.034277 -0.375199 -0.004496
			CHANNELS 3 Zrotation Yrotation Xrotation
			JOINT LeftFoot
			{
				OFFSET -0.013596 -0.397961 -0.043693
				CHANNELS 3 Zrotation Yrotation Xrotation
				JOINT LeftToe
				{
					OFFSET 0.026358 -0.055791 0.119288
					CHANNELS 3 Zrotation Yrotation Xrotation
					End Site
					{
						OFFSET 0.000000 0.000000 0.000000
					}
				}
			}
		}
	}
	JOINT RightUpLeg
	{
		OFFSET -0.067670 -0.090522 -0.004320
		CHANNELS 3 Zrotation Yrotation Xrotation
		JOINT RightLeg
		{
			OFFSET -0.038290 -0.382569 -0.008850
			CHANNELS 3 Zrotation Yrotation Xrotation
			JOINT RightFoot
			{
				OFFSET 0.015774 -0.398415 -0.042312
				CHANNELS 3 Zrotation Yrotation Xrotation
				JOINT RightToe
				{
					OFFSET -0.025372 -0.048144 0.123348
					CHANNELS 3 Zrotation Yrotation Xrotation
					End Site
					{
						OFFSET 0.000000 0.000000 0.000000
					}
				}
			}
		}
	}
	JOINT Spine
	{
		OFFSET -0.002533 0.108963 -0.026696
		CHANNELS 3 Zrotation Yrotation Xrotation
		JOINT Spine1
		{
			OFFSET 0.005487 0.135180 0.001092
			CHANNELS 3 Zrotation Yrotation Xrotation
			JOINT Spine2
			{
				OFFSET 0.001457 0.052922 0.025425
				CHANNELS 3 Zrotation Yrotation Xrotation
				JOINT Neck
				{
					OFFSET -0.002778 0.213870 -0.042857
					CHANNELS 3 Zrotation Yrotation Xrotation
					JOINT Head
					{
						OFFSET 0.005152 0.064970 0.051349
						CHANNELS 3 Zrotation Yrotation Xrotation
						End Site
						{
							OFFSET 0.000000 0.000000 0.000000
						}
					}
				}
				JOINT LeftShoulder
				{
					OFFSET 0.078845 0.121749 -0.034090
					CHANNELS 3 Zrotation Yrotation Xrotation
					JOINT LeftArm
					{
						OFFSET 0.090977 0.030469 -0.008868
						CHANNELS 3 Zrotation Yrotation Xrotation
						JOINT LeftForeArm
						{
							OFFSET 0.259612 -0.012772 -0.027456
							CHANNELS 3 Zrotation Yrotation Xrotation
							JOINT LeftHand
							{
								OFFSET 0.249234 0.008986 -0.001171
								CHANNELS 3 Zrotation Yrotation Xrotation
								End Site
								{
									OFFSET 0.000000 0.000000 0.000000
								}
							}
						}
					}
				}
				JOINT RightShoulder
				{
					OFFSET -0.081759 0.118833 -0.038615
					CHANNELS 3 Zrotation Yrotation Xrotation
					JOINT RightArm
					{
						OFFSET -0.096012 0.032551 -0.009143
						CHANNELS 3 Zrotation Yrotation Xrotation
						JOINT RightForeArm
						{
							OFFSET -0.253742 -0.013329 -0.021401
							CHANNELS 3 Zrotation Yrotation Xrotation
							JOINT RightHand
							{
								OFFSET -0.255298 0.007772 -0.005559
								CHANNELS 3 Zrotation Yrotation Xrotation
								End Site
								{
									OFFSET 0.000000 0.000000 0.000000
								}
							}
						}
					}
				}
			}
		}
	}
}
MOTION
Frames: 7
Frame Time: 0.050000
-0.291910 0.972082 0.439962 -14.352310 31.182125 -11.301181 -1.139554 -3.420825 -22.676737 -14.944150 -1.274586 40.923299 -3.003243 6.304882 19.289010 0.000000 0.000000 0.000000 5.033762 1.452790 -10.758577 4.661640 -2.064657 13.614779 7.111941 9.756263 20.032955 0.000000 0.000000 0.000000 4.108860 -2.437752 18.391507 -3.613397 1.933622 -27.455325 0.932145 11.340802 22.770952 13.118744 -4.083640 -15.535123 0.000000 0.000000 0.000000 15.971407 -13.861079 7.779185 13.831512 -36.795005 -10.316821 63.053519 -37.977233 -33.410127 0.000000 0.000000 0.000000 14.345748 6.079025 8.236016 10.728048 -2.577832 -2.337356 -1.305486 11.025605 0.148770 0.000000 0.000000 0.000000
-0.262866 0.945163 0.433779 -12.840200 33.438859 -12.406409 0.174630 -3.820201 -24.906761 -26.226629 1.963449 46.049169 5.047378 14.850308 12.193119 0.000000 0.000000 0.000000 2.915305 1.037602 -8.949527 3.598842 -2.174425 16.060704 4.142565 6.744351 13.803850 0.000000 0.000000 0.000000 5.635199 -3.291565 20.680063 -6.990242 2.668322 -26.324857 1.671275 12.877539 21.074824 13.129074 -3.652781 -15.938419 0.000000 0.000000 0.000000 9.750074 -16.782927 6.940642 6.488620 -39.158227 -8.373307 71.769697 -53.662332 -51.280138 0.000000 0.000000 0.000000 12.509424 5.666818 7.433095 7.917376 -4.780039 -1.611515 -2.427089 9.670494 0.111571 0.000000 0.000000 0.000000
-0.230006 0.924733 0.418814 -11.319199 34.824454 -12.993613 0.726022 -3.875380 -25.251887 -30.789938 3.238841 48.299065 8.858782 19.545639 7.312089 0.000000 0.000000 0.000000 0.435303 0.653051 -8.749604 3.311388 -2.374797 17.409638 0.755630 0.856475 12.850595 0.000000 0.000000 0.000000 7.800756 -4.498161 23.149096 -7.475290 2.872756 -25.616781 0.855373 13.358004 20.899549 13.750304 -3.509293 -17.338155 0.000000 0.000000 0.000000 0.886863 -17.281299 4.584524 -11.996725 -34.409097 -1.412723 66.278445 -74.453305 -64.444034 0.000000 0.000000 0.000000 11.178569 6.375790 7.238906 3.839749 -0.337838 -0.871892 -2.689164 7.084649 0.099228 0.000000 0.000000 0.000000
-0.199998 0.922867 0.402775 -8.341765 34.324497 -11.351030 2.943306 -3.585212 -25.786032 -27.900167 2.560229 49.389224 7.992859 17.381808 3.759480 0.000000 0.000000 0.000000 -2.992945 0.108175 -8.813579 2.528461 -1.977446 17.519112 -1.213085 -2.956004 13.571987 0.000000 0.000000 0.000000 9.065370 -4.470417 22.154677 -9.070120 3.159733 -24.869969 0.622322 13.455053 23.284143 14.710503 -3.551200 -19.432745 0.000000 0.000000 0.000000 -6.229627 -17.881404 2.530126 -26.127162 -23.588136 1.069513 -8.183906 -69.954345 -2.424076 0.000000 0.000000 0.000000 12.964108 6.975457 8.285840 1.010770 8.008956 -0.895820 -3.136548 5.929200 0.077718 0.000000 0.000000 0.000000
-0.173727 0.932704 0.388828 -5.464895 31.070368 -8.580459 6.032897 -2.856699 -25.387916 -21.088215 0.833883 49.686382 10.542310 21.525628 3.290686 0.000000 0.000000 0.000000 -6.236002 -0.366266 -10.142996 1.859773 -1.231136 15.677583 -0.348358 -2.312426 19.471977 0.000000 0.000000 0.000000 8.130737 -3.715501 20.833900 -8.849725 3.080564 -24.656245 0.880993 15.698374 23.703336 15.585312 -3.535903 -21.278481 0.000000 0.000000 0.000000 -12.345647 -17.670458 0.151273 -33.693311 -13.021332 0.200990 -13.661793 -46.228360 2.248925 0.000000 0.000000 0.000000 15.450232 7.029604 9.564472 2.378439 16.725388 -1.579612 -4.553193 8.728291 -0.013775 0.000000 0.000000 0.000000
-0.148181 0.942794 0.375957 -3.195880 28.643637 -5.447466 9.263445 -1.733918 -20.970839 -12.173921 -1.734357 43.543968 11.792508 23.504687 6.891608 0.000000 0.000000 0.000000 -8.627115 -0.733977 -11.737979 1.333907 -0.788273 14.445201 -0.596371 -3.128890 19.296546 0.000000 0.000000 0.000000 6.840565 -2.823312 18.553930 -8.914589 3.128128 -23.991892 0.448529 16.652681 23.895346 16.187742 -3.801663 -22.215940 0.000000 0.000000 0.000000 -16.288877 -15.573011 -2.085125 -34.872916 -5.529757 -1.343109 -8.912671 -33.289010 1.164672 0.000000 0.000000 0.000000 21.505626 6.133188 11.660154 -0.557025 24.716124 -2.351169 -4.037806 8.834213 -0.049768 0.000000 0.000000 0.000000
-0.120585 0.946279 0.361406 -2.661333 27.607774 -3.115954 11.311684 -1.114024 -14.820632 -4.249329 -2.780223 32.275558 7.980966 17.785976 8.268930 0.000000 0.000000 0.000000 -10.053832 -0.973570 -12.747059 1.735365 -0.573887 10.354157 -1.734030 -5.277641 21.652535 0.000000 0.000000 0.000000 5.716673 -2.245886 16.658938 -8.215037 2.802698 -25.282572 0.549765 16.248263 25.839865 16.937658 -4.022934 -23.527773 0.000000 0.000000 0.000000 -18.541964 -14.476526 -3.369533 -34.681694 -1.617481 -2.211775 -6.848837 -25.552481 0.851243 0.000000 0.000000 0.000000 24.993747 5.459689 12.804605 2.746263 28.990623 -2.883091 -7.122964 12.106149 -0.338666 0.000000 0.000000 0.000000
